HIERARCHY
ROOT Hips
{
	OFFSET -3.958830 18.904000 13.208200
	CHANNELS 6 Xposition Yposition Zposition Zrotation Yrotation Xrotation 
	JOINT LHipJoint
	{
		OFFSET 0.000000 0.000000 0.000000
		CHANNELS 3 Zrotation Yrotation Xrotation
		JOINT LeftUpLeg
		{
			OFFSET 1.800000 -1.400000 0.085000
			CHANNELS 3 Zrotation Yrotation Xrotation
			JOINT LeftLeg
			{
				OFFSET 2.215000 -6.000000 0.000000
				CHANNELS 3 Zrotation Yrotation Xrotation
				JOINT LeftFoot
				{
					OFFSET 2.500000 -6.900000 0.000000
					CHANNELS 3 Zrotation Yrotation Xrotation
					JOINT LeftToeBase
					{
						OFFSET 0.200000 -0.500000 1.950000
						CHANNELS 3 Zrotation Yrotation Xrotation
						End Site
						{
							OFFSET 0.000000 0.000000 0.000000
						}
					}
				}
			}
		}
	}
	JOINT RHipJoint
	{
		OFFSET 0.000000 0.000000 0.000000
		CHANNELS 3 Zrotation Yrotation Xrotation
		JOINT RightUpLeg
		{
			OFFSET -1.800000 -1.400000 0.085000
			CHANNELS 3 Zrotation Yrotation Xrotation
			JOINT RightLeg
			{
				OFFSET -2.215000 -6.000000 0.000000
				CHANNELS 3 Zrotation Yrotation Xrotation
				JOINT RightFoot
				{
					OFFSET -2.500000 -6.900000 0.000000
					CHANNELS 3 Zrotation Yrotation Xrotation
					JOINT RightToeBase
					{
						OFFSET -0.200000 -0.500000 1.950000
						CHANNELS 3 Zrotation Yrotation Xrotation
						End Site
						{
							OFFSET 0.000000 0.000000 0.000000
						}
					}
				}
			}
		}
	}
	JOINT LowerBack
	{
		OFFSET 0.000000 0.000000 0.000000
		CHANNELS 3 Zrotation Yrotation Xrotation
		JOINT Spine
		{
			OFFSET -0.087000 1.940000 -0.288900
			CHANNELS 3 Zrotation Yrotation Xrotation
			JOINT Spine1
			{
				OFFSET 0.000000 1.950000 0.060000
				CHANNELS 3 Zrotation Yrotation Xrotation
				JOINT Neck
				{
					OFFSET 0.000000 0.000000 0.000000
					CHANNELS 3 Zrotation Yrotation Xrotation
					JOINT Neck1
					{
						OFFSET 0.000000 1.600000 0.340000
						CHANNELS 3 Zrotation Yrotation Xrotation
						JOINT Head
						{
							OFFSET 0.000000 1.667000 -0.240000
							CHANNELS 3 Zrotation Yrotation Xrotation
							End Site
							{
								OFFSET 0.000000 0.000000 0.000000
							}
						}
					}
				}
				JOINT LeftShoulder
				{
					OFFSET 0.000000 0.000000 0.000000
					CHANNELS 3 Zrotation Yrotation Xrotation
					JOINT LeftArm
					{
						OFFSET 2.700000 1.550000 -0.730000
						CHANNELS 3 Zrotation Yrotation Xrotation
						JOINT LeftForeArm
						{
							OFFSET 5.450000 0.000000 0.000000
							CHANNELS 3 Zrotation Yrotation Xrotation
							JOINT LeftHand
							{
								OFFSET 3.450000 0.000000 0.000000
								CHANNELS 3 Zrotation Yrotation Xrotation
								JOINT LeftHandIndex1
								{
									OFFSET 0.750000 0.000000 0.000000
									CHANNELS 3 Zrotation Yrotation Xrotation
									End Site
									{
										OFFSET 0.000000 0.000000 0.000000
									}
								}
							}
						}
					}
				}
				JOINT RightShoulder
				{
					OFFSET 0.000000 0.000000 0.000000
					CHANNELS 3 Zrotation Yrotation Xrotation
					JOINT RightArm
					{
						OFFSET -2.700000 1.550000 -0.730000
						CHANNELS 3 Zrotation Yrotation Xrotation
						JOINT RightForeArm
						{
							OFFSET -5.450000 0.000000 0.000000
							CHANNELS 3 Zrotation Yrotation Xrotation
							JOINT RightHand
							{
								OFFSET -3.450000 0.000000 0.000000
								CHANNELS 3 Zrotation Yrotation Xrotation
								JOINT RightHandIndex1
								{
									OFFSET -0.750000 0.000000 0.000000
									CHANNELS 3 Zrotation Yrotation Xrotation
									End Site
									{
										OFFSET 0.000000 0.000000 0.000000
									}
								}
							}
						}
					}
				}
			}
		}
	}
}
MOTION
Frames: 4
Frame Time: 0.016667
0.040930 16.741890 -3.410690 0.102166 10.682183 5.520001 -14.950809 13.503560 2.307987 0.960140 -2.639403 -11.537640 10.570564 3.727910 47.703860 0.222491 7.810598 1.860872 0.616220 0.406380 0.406230 18.557965 -10.167734 3.939847 -6.891477 6.656397 -38.796978 8.978967 -9.094950 34.618764 -0.502130 -4.923336 2.529408 0.259610 0.093220 0.284210 -4.502033 -2.125087 -7.619495 23.999277 -9.841453 24.070142 -6.209821 -7.377421 12.024001 -0.207157 -7.129498 -12.472046 -14.950539 -3.637302 28.084296 -4.500030 -4.468690 -22.845120 -0.708234 -33.667382 5.155248 -16.383778 -43.331472 10.325509 137.058471 -64.554100 -126.994024 -3.778375 2.910131 0.539210 -0.004560 0.160470 0.274520 1.044029 34.880969 9.619797 33.087293 29.213040 -3.581018 102.694715 76.213514 67.045917 3.463358 0.756907 -0.090710 0.203330 -0.173000 -0.101650 
0.057200 16.602850 -3.378640 -1.206114 9.274183 6.020658 -14.933214 13.606097 2.003520 2.602945 -1.025534 -9.611242 9.462536 4.683263 44.181155 0.101309 7.404147 2.029700 0.588960 0.366830 0.387030 18.596474 -9.954755 4.325978 -5.879791 8.975513 -40.592557 8.425371 -9.223358 38.068659 -0.585633 -5.330925 2.422501 0.251360 0.137060 0.252550 -4.539688 -2.265574 -7.646775 25.485310 -9.711242 22.675547 -5.967372 -7.202758 12.827910 0.263231 -8.033948 -13.570671 -16.914856 -2.764899 28.478812 -4.136070 -4.633980 -22.362360 -2.911919 -34.127870 7.212013 -27.207196 -46.381934 14.912183 134.478702 -67.281807 -129.562332 -3.718494 2.861693 0.556370 0.001670 0.136190 0.278070 2.474576 35.916692 10.074505 34.451144 30.956695 -0.427879 87.370388 77.879908 53.776386 3.110206 -0.342466 -0.133110 0.265100 -0.150240 -0.103930 
0.060820 16.391860 -3.354990 -2.711750 8.770043 5.857216 -14.890990 13.468840 1.550602 5.001901 0.722331 -6.694389 8.686396 5.677803 41.200013 -0.003385 7.131751 2.110868 0.671930 0.432770 0.462090 18.730695 -9.513991 5.051484 -7.212037 12.948389 -44.453341 10.645073 -11.289751 45.175250 -0.946294 -6.762282 1.921603 0.298610 0.083810 0.266100 -4.744661 -2.138186 -7.847820 27.721109 -10.326262 22.334379 -6.675842 -7.605492 13.882771 0.759727 -8.301694 -14.768087 -17.483179 -2.178537 28.877491 -3.823870 -4.489840 -23.847780 -7.233083 -35.928415 10.326972 -35.695164 -50.145170 18.786424 135.228356 -69.899396 -135.057209 -3.520694 3.033486 0.609820 -0.040270 0.178520 0.279180 6.060951 37.701274 9.218157 38.081516 32.956626 -1.560134 67.191305 69.694791 35.464390 2.205806 -1.688266 -0.124520 0.260870 -0.179040 -0.130430 
0.049420 16.181750 -3.336170 -3.077451 9.640985 5.626506 -14.906469 13.331014 1.302863 6.139676 1.352296 -4.327819 8.991697 5.772190 40.080436 -0.107138 7.010285 2.090977 0.843330 0.618630 0.636030 18.812904 -9.015145 5.610232 -10.550936 15.000707 -48.904525 14.209608 -14.971610 51.786607 -1.451942 -8.453103 1.339325 0.407080 -0.076770 0.262920 -4.818473 -2.346244 -8.098705 27.547223 -10.356292 22.320073 -5.123411 -7.881843 14.112964 0.796255 -8.046769 -15.291485 -18.103013 -1.856905 32.140614 -4.302290 -4.475400 -28.878760 -7.170124 -35.332818 11.838052 -43.569510 -58.801522 18.584683 81.402956 -83.095478 -72.010712 -3.482641 -0.312862 0.741610 -0.156870 0.322230 0.265740 6.242315 37.820609 8.379140 43.290606 33.727209 -3.081759 59.105037 59.457319 24.158048 2.093525 -1.764051 -0.100150 0.286860 -0.251760 -0.187400 
